<svg width="25" height="24" viewBox="0 0 25 24" fill="none" xmlns="http://www.w3.org/2000/svg">
<path d="M15 9C15 10.3807 13.8807 11.5 12.5 11.5C11.1193 11.5 10 10.3807 10 9C10 7.61929 11.1193 6.5 12.5 6.5C13.8807 6.5 15 7.61929 15 9Z" stroke="white" stroke-width="1.5"/>
<path d="M13.7574 17.4936C13.4201 17.8184 12.9693 18 12.5002 18C12.031 18 11.5802 17.8184 11.2429 17.4936C8.1543 14.5008 4.01519 11.1575 6.03371 6.30373C7.1251 3.67932 9.74494 2 12.5002 2C15.2554 2 17.8752 3.67933 18.9666 6.30373C20.9826 11.1514 16.8536 14.5111 13.7574 17.4936Z" stroke="white" stroke-width="1.5"/>
<path d="M18.5 20C18.5 21.1046 15.8137 22 12.5 22C9.18629 22 6.5 21.1046 6.5 20" stroke="white" stroke-width="1.5" stroke-linecap="round"/>
</svg>
