<?xml version="1.0" encoding="UTF-8"?>
<svg id="Layer_1" data-name="Layer 1" xmlns="http://www.w3.org/2000/svg" viewBox="0 0 1094 1094">
  <defs>
    <style>
      .cls-1 {
        fill: #0a74ef;
      }
    </style>
  </defs>
  <g>
    <g>
      <path class="cls-1" d="M360.91,530.28c-2.71,1.35-6.84,1.19-9.31,1.6-1.91.32-3.59.84-5.09,1.51,1.6-.76,3.41-1.34,5.49-1.69,2.34-.4,6.2-.27,8.91-1.42Z"/>
      <path class="cls-1" d="M353.73,630.3l-.31.68h-7.88l-22.59-52.03.13-.47-5.95,12.96-6.39,13.93-11.76,25.61h-15.81l-11.69-25.61-13.63-29.86-19.13-41.91h19.2c5.47,0,10.71,1.57,15.15,4.38,4.45,2.81,8.11,6.86,10.46,11.8l6.1,12.38,9.83-23.69c12.66,9.11,29.72,23.96,44.49,57.82,5.43,12.44,8.41,23.84,9.79,33.99Z"/>
    </g>
    <path class="cls-1" d="M266.56,499.55c.5,1.03,2.32,3.09,2.51,3.7.32,1.03.14,2.84.48,4.25,1.09,4.52,5.16,9.16,10.16,8.94.14,0,.27-.02.4-.05,1.58-.25,2.47-1.51,3.97-1.16.06,4.18,1.71,8.94,4.46,12.64,1.8,2.42,4.08,4.38,6.7,5.44.29.12.59.21.88.28l.34.08h.01c.83.58,1.69,1.17,2.58,1.79h0c.86.6,1.73,1.22,2.64,1.87,6.66,4.79,14.53,11.18,22.66,21.08,7.32,8.92,14.83,20.69,21.83,36.74,5.43,12.44,8.41,23.84,9.79,33.99l43.76-95.56h-11.45c-14.5,0-27.64,8.52-33.57,21.75l-13.1,29.26-6.53-24.66c-.54-2.03-.8-4.09-.8-6.13,0-5.27,1.74-10.42,4.97-14.62.79-1.02,1.66-1.99,2.62-2.89,1.23-1.05,2.6-1.96,4.16-2.7.14-.07.27-.13.41-.19.01,0,.02-.01.03-.02,1.6-.76,3.41-1.34,5.49-1.69,2.34-.4,6.2-.27,8.91-1.42,1.55-.65,2.72-1.73,3.03-3.56.57-3.4-1.96-4.21-1.94-6.17.02-1.84,2.35-2.15,1.65-4.62-.48-1.68-2.78-.52-3.87-.23,1.08-1.57,3.36-2.61,3.22-4.83-.09-1.44-3.19-1.64-2.99-3.74.63-1.14,1.86-1.64,2.7-2.79,1.86-2.54,1.76-3.79-.73-5.66-3.31-2.5-8.41-3.18-10.18-7.57-.04-.1-.08-.2-.11-.3-1.87-5.29-1.84-8.73-5.51-13.66-2.6-3.5-4.61-4.08-7.69-6.49-1.7-1.33-2.15-3.31-4.44-4.52-9.36-4.96-22.62-3.61-33.34,1.15-.27.11-.53.23-.79.35-.08.03-.15.07-.23.11-4.3,2.02-8.14,4.59-11.1,7.51-1.56,1.54-2.21,3.33-3.43,5.04-1.54,2.16-1.86,2.08-2.75,1.83-.48-.14-1.1-.33-2.16-.27-2.25.12-5.73,1.03-4.86,3.98-4.29-1.29-7.58,1.6-9.07,5.27-.41,1.01-.69,2.08-.81,3.13-.25,2.15.11,3.4,1.04,5.3Z"/>
  </g>
  <g>
    <path class="cls-1" d="M418.13,534.25h11.54l4.16,22.02,6.08-22.02h11.5l6.1,21.99,4.16-21.99h11.48l-8.67,39.33h-11.92l-6.9-24.76-6.87,24.76h-11.92l-8.75-39.33Z"/>
    <path class="cls-1" d="M473.09,559.41c0-4.35,1.47-7.93,4.4-10.74,2.93-2.82,6.89-4.23,11.88-4.23,5.7,0,10.02,1.65,12.93,4.96,2.34,2.67,3.51,5.95,3.51,9.85,0,4.38-1.45,7.97-4.36,10.77-2.91,2.8-6.93,4.2-12.06,4.2-4.58,0-8.28-1.16-11.11-3.49-3.47-2.88-5.2-6.65-5.2-11.32ZM484.03,559.39c0,2.54.51,4.42,1.54,5.63,1.03,1.22,2.32,1.82,3.88,1.82s2.87-.6,3.88-1.8c1.01-1.2,1.52-3.12,1.52-5.77,0-2.47-.51-4.31-1.53-5.51-1.02-1.21-2.28-1.81-3.78-1.81-1.59,0-2.91.61-3.94,1.84-1.04,1.23-1.56,3.09-1.56,5.59Z"/>
    <path class="cls-1" d="M510.61,545.09h10.19v4.16c1.47-1.73,2.95-2.97,4.45-3.7,1.5-.73,3.3-1.1,5.41-1.1,2.27,0,4.07.4,5.4,1.21,1.33.8,2.41,2,3.25,3.59,1.71-1.86,3.28-3.13,4.69-3.8,1.41-.67,3.15-1.01,5.22-1.01,3.05,0,5.44.91,7.15,2.72,1.71,1.82,2.57,4.65,2.57,8.52v17.89h-10.95v-16.23c0-1.29-.25-2.24-.75-2.87-.73-.98-1.64-1.48-2.73-1.48-1.28,0-2.32.47-3.1,1.4-.78.93-1.18,2.42-1.18,4.48v14.7h-10.95v-15.69c0-1.25-.07-2.1-.22-2.55-.23-.71-.64-1.29-1.21-1.73-.57-.44-1.25-.66-2.02-.66-1.26,0-2.29.47-3.1,1.42-.81.95-1.21,2.5-1.21,4.67v14.54h-10.95v-28.49Z"/>
    <path class="cls-1" d="M596.55,562.04h-21.89c.2,1.75.67,3.06,1.42,3.92,1.05,1.23,2.43,1.85,4.13,1.85,1.07,0,2.09-.27,3.06-.8.59-.34,1.22-.94,1.9-1.8l10.76.99c-1.65,2.86-3.63,4.91-5.96,6.16-2.33,1.24-5.66,1.86-10.01,1.86-3.77,0-6.74-.53-8.91-1.6-2.16-1.06-3.96-2.75-5.38-5.07-1.42-2.32-2.13-5.04-2.13-8.17,0-4.45,1.43-8.06,4.28-10.81,2.85-2.75,6.79-4.13,11.82-4.13,4.08,0,7.3.62,9.66,1.85s4.16,3.02,5.39,5.37,1.85,5.39,1.85,9.15v1.23ZM585.44,556.81c-.21-2.11-.78-3.62-1.7-4.53-.92-.91-2.13-1.37-3.64-1.37-1.73,0-3.12.69-4.16,2.07-.66.86-1.08,2.14-1.26,3.84h10.76Z"/>
    <path class="cls-1" d="M601.02,545.09h10.17v4.64c1.52-1.9,3.06-3.25,4.61-4.06,1.56-.81,3.45-1.22,5.69-1.22,3.02,0,5.39.9,7.1,2.7,1.71,1.8,2.56,4.57,2.56,8.33v18.11h-10.97v-15.67c0-1.79-.33-3.05-.99-3.8-.66-.74-1.59-1.11-2.79-1.11-1.32,0-2.4.5-3.22,1.5-.82,1-1.23,2.8-1.23,5.39v13.68h-10.92v-28.49Z"/>
    <path class="cls-1" d="M656.09,534.25h12.18v39.33h-12.18v-39.33Z"/>
    <path class="cls-1" d="M675.72,545.09h10.17v4.64c1.52-1.9,3.06-3.25,4.61-4.06,1.56-.81,3.45-1.22,5.69-1.22,3.02,0,5.39.9,7.1,2.7,1.71,1.8,2.56,4.57,2.56,8.33v18.11h-10.97v-15.67c0-1.79-.33-3.05-.99-3.8-.66-.74-1.59-1.11-2.79-1.11-1.32,0-2.4.5-3.22,1.5-.82,1-1.23,2.8-1.23,5.39v13.68h-10.92v-28.49Z"/>
    <path class="cls-1" d="M730.47,534.25h18.05c3.56,0,6.43.48,8.63,1.45,2.19.97,4,2.35,5.43,4.16,1.43,1.81,2.47,3.91,3.11,6.3.64,2.4.97,4.94.97,7.62,0,4.2-.48,7.46-1.44,9.78-.96,2.32-2.28,4.26-3.98,5.82-1.7,1.57-3.52,2.61-5.47,3.13-2.67.72-5.08,1.07-7.24,1.07h-18.05v-39.33ZM742.63,543.16v21.49h2.98c2.54,0,4.35-.28,5.42-.84,1.07-.56,1.91-1.55,2.52-2.95.61-1.4.91-3.68.91-6.83,0-4.17-.68-7.02-2.04-8.56-1.36-1.54-3.61-2.31-6.76-2.31h-3.03Z"/>
    <path class="cls-1" d="M803.4,562.04h-21.89c.2,1.75.67,3.06,1.42,3.92,1.05,1.23,2.43,1.85,4.13,1.85,1.07,0,2.09-.27,3.06-.8.59-.34,1.22-.94,1.9-1.8l10.76.99c-1.65,2.86-3.63,4.91-5.96,6.16-2.33,1.24-5.66,1.86-10.01,1.86-3.77,0-6.74-.53-8.91-1.6-2.16-1.06-3.96-2.75-5.38-5.07-1.42-2.32-2.13-5.04-2.13-8.17,0-4.45,1.43-8.06,4.28-10.81,2.85-2.75,6.79-4.13,11.82-4.13,4.08,0,7.3.62,9.66,1.85s4.16,3.02,5.39,5.37,1.85,5.39,1.85,9.15v1.23ZM792.3,556.81c-.21-2.11-.78-3.62-1.7-4.53-.92-.91-2.13-1.37-3.64-1.37-1.73,0-3.12.69-4.16,2.07-.66.86-1.08,2.14-1.26,3.84h10.76Z"/>
    <path class="cls-1" d="M808.65,534.25h30.05v8.45h-17.84v6.87h15.24v7.94h-15.24v16.07h-12.21v-39.33Z"/>
    <path class="cls-1" d="M844.37,534.25h10.92v7.43h-10.92v-7.43ZM844.37,545.09h10.92v28.49h-10.92v-28.49Z"/>
  </g>
  <g>
    <path class="cls-1" d="M429.71,596.85l-2.71-10.2h1.38l1.55,6.69c.17.7.31,1.4.43,2.09.26-1.09.41-1.72.46-1.89l1.94-6.89h1.63l1.46,5.16c.37,1.28.63,2.48.79,3.61.13-.64.3-1.38.51-2.22l1.6-6.55h1.36l-2.8,10.2h-1.3l-2.15-7.77c-.18-.65-.29-1.05-.32-1.2-.11.47-.21.87-.3,1.2l-2.16,7.77h-1.38Z"/>
    <path class="cls-1" d="M446.66,591.88c0-1.69.45-3.02,1.36-3.98s2.08-1.44,3.52-1.44c.94,0,1.79.23,2.55.67s1.33,1.08,1.73,1.88c.4.8.6,1.72.6,2.74s-.21,1.96-.63,2.78-1.01,1.43-1.77,1.85-1.59.63-2.48.63c-.96,0-1.82-.23-2.57-.7s-1.33-1.1-1.72-1.9-.58-1.65-.58-2.55ZM448.06,591.9c0,1.23.33,2.2.99,2.9.66.71,1.49,1.06,2.49,1.06s1.85-.36,2.51-1.07c.66-.71.99-1.73.99-3.04,0-.83-.14-1.56-.42-2.17-.28-.62-.69-1.1-1.23-1.44-.54-.34-1.15-.51-1.82-.51-.96,0-1.78.33-2.47.98-.69.66-1.03,1.75-1.03,3.29Z"/>
    <path class="cls-1" d="M463.82,596.85v-10.2h2.03l2.41,7.22c.22.67.38,1.18.49,1.51.12-.37.3-.92.54-1.64l2.44-7.1h1.82v10.2h-1.3v-8.54l-2.96,8.54h-1.22l-2.95-8.68v8.68h-1.3Z"/>
    <path class="cls-1" d="M481.46,596.85v-10.2h7.38v1.2h-6.03v3.12h5.64v1.2h-5.64v3.47h6.26v1.2h-7.61Z"/>
    <path class="cls-1" d="M496.62,596.85v-10.2h1.38l5.36,8.01v-8.01h1.29v10.2h-1.38l-5.36-8.02v8.02h-1.29Z"/>
    <path class="cls-1" d="M522.51,596.85v-10.2h1.35v10.2h-1.35Z"/>
    <path class="cls-1" d="M531.93,596.85v-10.2h1.38l5.36,8.01v-8.01h1.29v10.2h-1.38l-5.36-8.02v8.02h-1.29Z"/>
    <path class="cls-1" d="M557.59,596.85v-10.2h3.51c.79,0,1.4.05,1.82.15.58.13,1.08.38,1.5.73.54.45.94,1.04,1.21,1.74.27.71.4,1.52.4,2.42,0,.77-.09,1.46-.27,2.06s-.41,1.09-.7,1.49-.59.7-.93.93c-.34.23-.74.4-1.22.51-.48.12-1.02.17-1.64.17h-3.68ZM558.94,595.65h2.18c.67,0,1.2-.06,1.58-.19.38-.13.69-.3.91-.53.32-.32.57-.75.75-1.29.18-.54.27-1.2.27-1.97,0-1.07-.17-1.89-.52-2.46-.35-.57-.78-.96-1.28-1.15-.36-.14-.94-.21-1.75-.21h-2.14v7.79Z"/>
    <path class="cls-1" d="M573.61,596.85v-10.2h7.38v1.2h-6.03v3.12h5.64v1.2h-5.64v3.47h6.26v1.2h-7.61Z"/>
    <path class="cls-1" d="M596.07,593.28l1.35.34c-.28,1.11-.79,1.95-1.53,2.54-.74.58-1.63.87-2.7.87s-1.99-.22-2.68-.67c-.69-.45-1.21-1.1-1.57-1.94-.36-.85-.54-1.76-.54-2.73,0-1.06.2-1.99.61-2.78.41-.79.98-1.39,1.73-1.8.75-.41,1.57-.62,2.47-.62,1.02,0,1.88.26,2.57.78s1.18,1.25,1.45,2.19l-1.33.31c-.24-.74-.58-1.28-1.03-1.62s-1.02-.51-1.7-.51c-.78,0-1.44.19-1.97.56-.53.38-.9.88-1.11,1.51s-.32,1.29-.32,1.96c0,.87.13,1.62.38,2.27.25.65.65,1.13,1.18,1.45s1.11.48,1.73.48c.76,0,1.4-.22,1.92-.65s.88-1.08,1.06-1.94Z"/>
    <path class="cls-1" d="M604.81,596.85v-10.2h7.38v1.2h-6.03v3.12h5.64v1.2h-5.64v3.47h6.26v1.2h-7.61Z"/>
    <path class="cls-1" d="M619.97,596.85v-10.2h1.38l5.36,8.01v-8.01h1.29v10.2h-1.38l-5.36-8.02v8.02h-1.29Z"/>
    <path class="cls-1" d="M638.57,596.85v-9h-3.36v-1.2h8.09v1.2h-3.37v9h-1.35Z"/>
    <path class="cls-1" d="M650.4,596.85v-10.2h4.52c.91,0,1.6.09,2.07.27s.85.51,1.13.97.42.98.42,1.54c0,.72-.23,1.33-.7,1.83s-1.19.81-2.17.95c.36.17.63.34.81.51.39.36.77.81,1.12,1.36l1.77,2.78h-1.7l-1.35-2.12c-.39-.61-.72-1.08-.97-1.41s-.48-.55-.68-.68c-.2-.13-.41-.22-.62-.27-.15-.03-.4-.05-.75-.05h-1.57v4.53h-1.35ZM651.75,591.15h2.9c.62,0,1.1-.06,1.45-.19s.61-.33.79-.61.27-.59.27-.91c0-.48-.17-.88-.53-1.19-.35-.31-.9-.47-1.66-.47h-3.23v3.37Z"/>
    <path class="cls-1" d="M665.25,596.85l3.92-10.2h1.45l4.17,10.2h-1.54l-1.19-3.09h-4.27l-1.12,3.09h-1.43ZM668.19,592.66h3.46l-1.06-2.82c-.33-.86-.57-1.56-.72-2.12-.13.65-.31,1.3-.55,1.95l-1.12,2.99Z"/>
    <path class="cls-1" d="M681.52,596.85v-10.2h1.35v9h5.02v1.2h-6.37Z"/>
    <path class="cls-1" d="M695.43,596.85v-10.2h1.35v10.2h-1.35Z"/>
    <path class="cls-1" d="M704.05,596.85v-1.25l5.23-6.53c.37-.46.72-.87,1.06-1.21h-5.69v-1.2h7.31v1.2l-5.73,7.08-.62.72h6.51v1.2h-8.06Z"/>
    <path class="cls-1" d="M719.29,596.85v-10.2h7.38v1.2h-6.03v3.12h5.64v1.2h-5.64v3.47h6.26v1.2h-7.61Z"/>
    <path class="cls-1" d="M734.47,596.85v-10.2h3.51c.79,0,1.4.05,1.82.15.58.13,1.08.38,1.5.73.54.45.94,1.04,1.21,1.74.27.71.4,1.52.4,2.42,0,.77-.09,1.46-.27,2.06s-.41,1.09-.7,1.49-.59.7-.93.93c-.34.23-.74.4-1.22.51-.48.12-1.02.17-1.64.17h-3.68ZM735.82,595.65h2.18c.67,0,1.2-.06,1.58-.19.38-.13.69-.3.91-.53.32-.32.57-.75.75-1.29.18-.54.27-1.2.27-1.97,0-1.07-.17-1.89-.52-2.46-.35-.57-.78-.96-1.28-1.15-.36-.14-.94-.21-1.75-.21h-2.14v7.79Z"/>
    <path class="cls-1" d="M760.19,596.85v-10.2h6.88v1.2h-5.53v3.16h4.79v1.2h-4.79v4.63h-1.35Z"/>
    <path class="cls-1" d="M774.75,596.85v-10.2h1.35v10.2h-1.35Z"/>
    <path class="cls-1" d="M784.17,596.85v-10.2h1.38l5.36,8.01v-8.01h1.29v10.2h-1.38l-5.36-8.02v8.02h-1.29Z"/>
    <path class="cls-1" d="M799.05,596.85l3.92-10.2h1.45l4.17,10.2h-1.54l-1.19-3.09h-4.27l-1.12,3.09h-1.43ZM802,592.66h3.46l-1.06-2.82c-.33-.86-.57-1.56-.72-2.12-.13.65-.31,1.3-.55,1.95l-1.12,2.99Z"/>
    <path class="cls-1" d="M815.36,596.85v-10.2h1.38l5.36,8.01v-8.01h1.29v10.2h-1.38l-5.36-8.02v8.02h-1.29Z"/>
    <path class="cls-1" d="M838.65,593.28l1.35.34c-.28,1.11-.79,1.95-1.53,2.54-.74.58-1.63.87-2.7.87s-1.99-.22-2.68-.67c-.69-.45-1.21-1.1-1.57-1.94-.36-.85-.54-1.76-.54-2.73,0-1.06.2-1.99.61-2.78.41-.79.98-1.39,1.73-1.8.75-.41,1.57-.62,2.47-.62,1.02,0,1.88.26,2.57.78s1.18,1.25,1.45,2.19l-1.33.31c-.24-.74-.58-1.28-1.03-1.62s-1.02-.51-1.7-.51c-.78,0-1.44.19-1.97.56-.53.38-.9.88-1.11,1.51s-.32,1.29-.32,1.96c0,.87.13,1.62.38,2.27.25.65.65,1.13,1.18,1.45s1.11.48,1.73.48c.76,0,1.4-.22,1.92-.65s.88-1.08,1.06-1.94Z"/>
    <path class="cls-1" d="M847.39,596.85v-10.2h7.38v1.2h-6.03v3.12h5.64v1.2h-5.64v3.47h6.26v1.2h-7.61Z"/>
  </g>
</svg>