<?xml version="1.0" encoding="UTF-8"?>
<svg id="Layer_1" data-name="Layer 1" xmlns="http://www.w3.org/2000/svg" viewBox="0 0 1094 1094">
  <defs>
    <style>
      .cls-1 {
        fill: #0a74ef;
      }
    </style>
  </defs>
  <g>
    <g>
      <path class="cls-1" d="M475.29,528.39c-3.02,1.5-7.62,1.32-10.36,1.78-2.13.36-4,.93-5.67,1.68,1.78-.85,3.8-1.49,6.11-1.88,2.61-.44,6.91-.3,9.92-1.58Z"/>
      <path class="cls-1" d="M467.3,639.74l-.35.76h-8.78l-25.15-57.93.15-.52-6.62,14.43-7.12,15.51-13.09,28.51h-17.61l-13.02-28.51-15.17-33.24-21.3-46.66h21.37c6.09,0,11.92,1.75,16.86,4.88,4.96,3.13,9.03,7.64,11.65,13.14l6.79,13.79,10.95-26.37c14.09,10.15,33.09,26.68,49.53,64.38,6.04,13.86,9.36,26.54,10.9,37.84Z"/>
    </g>
    <path class="cls-1" d="M370.25,494.17c.56,1.14,2.58,3.44,2.8,4.12.36,1.14.16,3.16.54,4.73,1.22,5.03,5.75,10.2,11.31,9.95.16,0,.3-.03.45-.05,1.76-.28,2.75-1.68,4.42-1.29.07,4.65,1.9,9.95,4.97,14.07,2.01,2.69,4.54,4.88,7.45,6.06.33.14.66.23.98.32l.38.09h.01c.93.64,1.89,1.3,2.88,1.99h0c.95.67,1.93,1.36,2.94,2.09,7.42,5.34,16.18,12.44,25.23,23.47,8.15,9.93,16.51,23.04,24.3,40.91,6.04,13.86,9.36,26.54,10.9,37.84l48.72-106.39h-12.74c-16.14,0-30.78,9.48-37.37,24.21l-14.59,32.57-7.26-27.46c-.6-2.26-.89-4.55-.89-6.83,0-5.86,1.94-11.6,5.54-16.28.88-1.14,1.85-2.21,2.92-3.22,1.37-1.17,2.89-2.18,4.64-3.01.15-.08.3-.15.45-.21.01,0,.03-.01.04-.02,1.78-.85,3.8-1.49,6.11-1.88,2.61-.44,6.91-.3,9.92-1.58,1.73-.73,3.03-1.92,3.37-3.96.63-3.79-2.18-4.69-2.16-6.87.03-2.04,2.62-2.4,1.84-5.15-.54-1.87-3.09-.57-4.31-.25,1.2-1.75,3.74-2.91,3.59-5.38-.1-1.61-3.55-1.82-3.32-4.17.71-1.27,2.07-1.82,3.01-3.1,2.07-2.83,1.95-4.22-.81-6.3-3.69-2.79-9.36-3.54-11.34-8.43-.04-.11-.09-.22-.13-.33-2.09-5.89-2.05-9.72-6.13-15.21-2.89-3.9-5.13-4.55-8.56-7.23-1.89-1.48-2.39-3.68-4.94-5.03-10.42-5.52-25.18-4.02-37.12,1.28-.3.13-.59.26-.88.39-.09.04-.17.08-.26.12-4.79,2.25-9.06,5.11-12.35,8.36-1.73,1.72-2.46,3.71-3.82,5.61-1.71,2.4-2.07,2.32-3.06,2.04-.53-.15-1.23-.37-2.4-.3-2.51.14-6.38,1.14-5.41,4.43-4.78-1.43-8.44,1.78-10.1,5.87-.46,1.12-.76,2.31-.9,3.49-.28,2.39.13,3.79,1.15,5.9Z"/>
  </g>
  <g>
    <g>
      <path class="cls-1" d="M541.75,531.65h11.54l4.16,22.02,6.08-22.02h11.5l6.1,21.99,4.16-21.99h11.48l-8.67,39.33h-11.92l-6.9-24.76-6.87,24.76h-11.92l-8.75-39.33Z"/>
      <path class="cls-1" d="M596.7,556.82c0-4.35,1.47-7.93,4.4-10.74,2.93-2.82,6.89-4.23,11.88-4.23,5.7,0,10.02,1.65,12.93,4.96,2.34,2.67,3.51,5.95,3.51,9.85,0,4.38-1.45,7.97-4.36,10.77-2.91,2.8-6.93,4.2-12.06,4.2-4.58,0-8.28-1.16-11.11-3.49-3.47-2.88-5.2-6.65-5.2-11.32ZM607.65,556.79c0,2.54.51,4.42,1.54,5.63,1.03,1.22,2.32,1.82,3.88,1.82s2.87-.6,3.88-1.8c1.01-1.2,1.52-3.12,1.52-5.77,0-2.47-.51-4.31-1.53-5.51-1.02-1.21-2.28-1.81-3.78-1.81-1.59,0-2.91.61-3.94,1.84-1.04,1.23-1.56,3.09-1.56,5.59Z"/>
      <path class="cls-1" d="M634.22,542.49h10.19v4.16c1.47-1.73,2.95-2.97,4.45-3.7,1.5-.73,3.3-1.1,5.41-1.1,2.27,0,4.07.4,5.4,1.21,1.33.8,2.41,2,3.25,3.59,1.71-1.86,3.28-3.13,4.69-3.8,1.41-.67,3.15-1.01,5.22-1.01,3.05,0,5.44.91,7.15,2.72,1.71,1.82,2.57,4.65,2.57,8.52v17.89h-10.95v-16.23c0-1.29-.25-2.24-.75-2.87-.73-.98-1.64-1.48-2.73-1.48-1.28,0-2.32.47-3.1,1.4-.78.93-1.18,2.42-1.18,4.48v14.7h-10.95v-15.69c0-1.25-.07-2.1-.22-2.55-.23-.71-.64-1.29-1.21-1.73-.57-.44-1.25-.66-2.02-.66-1.26,0-2.29.47-3.1,1.42-.81.95-1.21,2.5-1.21,4.67v14.54h-10.95v-28.49Z"/>
      <path class="cls-1" d="M720.16,559.45h-21.89c.2,1.75.67,3.06,1.42,3.92,1.05,1.23,2.43,1.85,4.13,1.85,1.07,0,2.09-.27,3.06-.8.59-.34,1.22-.94,1.9-1.8l10.76.99c-1.65,2.86-3.63,4.91-5.96,6.16-2.33,1.24-5.66,1.86-10.01,1.86-3.77,0-6.74-.53-8.91-1.6-2.16-1.06-3.96-2.75-5.38-5.07-1.42-2.32-2.13-5.04-2.13-8.17,0-4.45,1.43-8.06,4.28-10.81,2.85-2.75,6.79-4.13,11.82-4.13,4.08,0,7.3.62,9.66,1.85s4.16,3.02,5.39,5.37,1.85,5.39,1.85,9.15v1.23ZM709.06,554.22c-.21-2.11-.78-3.62-1.7-4.53-.92-.91-2.13-1.37-3.64-1.37-1.73,0-3.12.69-4.16,2.07-.66.86-1.08,2.14-1.26,3.84h10.76Z"/>
      <path class="cls-1" d="M724.63,542.49h10.17v4.64c1.52-1.9,3.06-3.25,4.61-4.06,1.56-.81,3.45-1.22,5.69-1.22,3.02,0,5.39.9,7.1,2.7,1.71,1.8,2.56,4.57,2.56,8.33v18.11h-10.97v-15.67c0-1.79-.33-3.05-.99-3.8-.66-.74-1.59-1.11-2.79-1.11-1.32,0-2.4.5-3.22,1.5-.82,1-1.23,2.8-1.23,5.39v13.68h-10.92v-28.49Z"/>
    </g>
    <path class="cls-1" d="M550.35,583.35h12.18v39.33h-12.18v-39.33Z"/>
    <path class="cls-1" d="M569.97,594.19h10.17v4.64c1.52-1.9,3.06-3.25,4.61-4.06,1.56-.81,3.45-1.22,5.69-1.22,3.02,0,5.39.9,7.1,2.7,1.71,1.8,2.56,4.57,2.56,8.33v18.11h-10.97v-15.67c0-1.79-.33-3.05-.99-3.8-.66-.74-1.59-1.11-2.79-1.11-1.32,0-2.4.5-3.22,1.5-.82,1-1.23,2.8-1.23,5.39v13.68h-10.92v-28.49Z"/>
    <path class="cls-1" d="M624.73,583.35h18.05c3.56,0,6.43.48,8.63,1.45,2.19.97,4,2.35,5.43,4.16,1.43,1.81,2.47,3.91,3.11,6.3.64,2.4.97,4.94.97,7.62,0,4.2-.48,7.46-1.44,9.78-.96,2.32-2.28,4.26-3.98,5.82-1.7,1.57-3.52,2.61-5.47,3.13-2.67.72-5.08,1.07-7.24,1.07h-18.05v-39.33ZM636.88,592.25v21.49h2.98c2.54,0,4.35-.28,5.42-.84,1.07-.56,1.91-1.55,2.52-2.95.61-1.4.91-3.68.91-6.83,0-4.17-.68-7.02-2.04-8.56-1.36-1.54-3.61-2.31-6.76-2.31h-3.03Z"/>
    <path class="cls-1" d="M697.66,611.14h-21.89c.2,1.75.67,3.06,1.42,3.92,1.05,1.23,2.43,1.85,4.13,1.85,1.07,0,2.09-.27,3.06-.8.59-.34,1.22-.94,1.9-1.8l10.76.99c-1.65,2.86-3.63,4.91-5.96,6.16-2.33,1.24-5.66,1.86-10.01,1.86-3.77,0-6.74-.53-8.91-1.6-2.16-1.06-3.96-2.75-5.38-5.07-1.42-2.32-2.13-5.04-2.13-8.17,0-4.45,1.43-8.06,4.28-10.81,2.85-2.75,6.79-4.13,11.82-4.13,4.08,0,7.3.62,9.66,1.85s4.16,3.02,5.39,5.37,1.85,5.39,1.85,9.15v1.23ZM686.55,605.91c-.21-2.11-.78-3.62-1.7-4.53-.92-.91-2.13-1.37-3.64-1.37-1.73,0-3.12.69-4.16,2.07-.66.86-1.08,2.14-1.26,3.84h10.76Z"/>
    <path class="cls-1" d="M702.9,583.35h30.05v8.45h-17.84v6.87h15.24v7.94h-15.24v16.07h-12.21v-39.33Z"/>
    <path class="cls-1" d="M738.62,583.35h10.92v7.43h-10.92v-7.43ZM738.62,594.19h10.92v28.49h-10.92v-28.49Z"/>
  </g>
</svg>